<svg xmlns="http://www.w3.org/2000/svg" viewBox="0 0 727.47 206.97"><defs><style>.cls-1{fill:#9b0202;}.cls-2{fill:red;}.cls-3{fill:#fff;}.cls-4{fill:#c9c9c9;}</style></defs><g id="Camada_2" data-name="Camada 2"><g id="Layer_1" data-name="Layer 1"><path class="cls-1" d="M99.08,2a97,97,0,1,0,97,97,97.05,97.05,0,0,0-97-97"/><path class="cls-2" d="M97.1,0a97,97,0,1,0,97,97,97,97,0,0,0-97-97"/><path class="cls-3" d="M51.4,74.83a39.79,39.79,0,0,1,78.23-10.19,39.75,39.75,0,0,1-10.24,78.16l-68,0Zm68.75-.72a29,29,0,0,0-58,.72V132l43.11,0h14.12a29,29,0,0,0,.76-57.92Z"/><path class="cls-4" d="M159.16,103.08a39.46,39.46,0,0,0-29.53-38.44l-9.48,9.47a29,29,0,0,1-.76,57.92H105.27l-43.11,0L51.38,142.77l68,0a39.79,39.79,0,0,0,39.77-39.72"/><path d="M559.12,75.58c.86-5.91-4-7.52-9.83-8.85-5-1-5.8-2.52-5.57-4.36.17-1,1.15-3.74,6.32-3.74A39.58,39.58,0,0,1,560.1,59.9l1.56-4.13a43.77,43.77,0,0,0-11.33-1.33c-6.78,0-11,2.58-11.79,8-.8,6,3.57,8,9.49,9.14,5,1,6.14,2.35,5.86,4.3-.12,1.1-1.27,4.26-6.61,4.25a44.11,44.11,0,0,1-10.64-1.32L535.09,83a51.29,51.29,0,0,0,12.19,1.27c6.72,0,11-3,11.84-8.73M502,69.37c.75-5.75,3-10.63,8.69-10.63a10,10,0,0,1,6.55,2.47l-2.31,16.37A13.55,13.55,0,0,1,507.67,80C502,80,501.12,75.11,502,69.37Zm12,14.35h5.17l4.1-28.83h-4L518,57.77h-.12a11.73,11.73,0,0,0-8.33-3.34c-8,0-11.85,6.6-13,14.93S497,84.3,505,84.3a15,15,0,0,0,9.32-3.45h.11ZM478.7,44.66l-1,7.18h5.17l1-7.18ZM477.27,55l-4,28.73h5.18l4-28.72ZM436.73,69.34c-1.26,8.91,1.44,14.94,12,14.94A39.38,39.38,0,0,0,458.63,83l-.34-4.19a32.75,32.75,0,0,1-9,1.15c-6,0-8.05-4.31-7.13-10.63s4.09-10.63,10.13-10.63a29.19,29.19,0,0,1,8.62,1.16l1.55-4.14a35.54,35.54,0,0,0-9.6-1.32C442.37,54.41,437.94,60.44,436.73,69.34Zm-18.27-24.7h-4.31l-4.43,6.89h2.88Zm-17.08,24.7c.75-5.75,3.05-10.63,8.69-10.63a10,10,0,0,1,6.55,2.47l-2.31,16.37A13.54,13.54,0,0,1,407.07,80C401.44,80,400.52,75.08,401.38,69.34Zm12,14.36h5.17l4.1-28.83h-4l-1.32,2.87h-.12a11.73,11.73,0,0,0-8.34-3.34c-8,0-11.84,6.61-13,14.93s.45,14.94,8.5,14.94a15.06,15.06,0,0,0,9.32-3.44h.11ZM344.59,62c2-1.37,4.65-3.33,7.7-3.33,4.08,0,5.29,2.53,4.89,6.15l-2.65,18.84h5.17l2.59-18.43c.12-1.15.23-2.24.29-3.16,1.9-1.38,4.83-3.39,7.82-3.39,4.14,0,5.35,2.59,4.83,6.32l-2.6,18.67h5.18l2.76-19.82c.81-6-1.54-9.47-7.29-9.48-4,0-7.83,2.07-10.93,5.06-.69-3.28-3.1-5.06-7.18-5.06s-7.36,2.18-10,4.59h-.11l.57-4h-5.17l-4,28.72h5.17Zm-31.68.57a24.31,24.31,0,0,1,11.39-3.33l.69-4.88c-4.6,0-8.86,2.58-11.5,5.17h-.12L314,55h-5.18l-4,28.72H310Zm-42,6.71c.75-5.75,3.05-10.62,8.68-10.62a10,10,0,0,1,6.55,2.47l-2.3,16.37a13.55,13.55,0,0,1-7.25,2.41C270.94,79.93,270,75,270.89,69.3Zm12,14.36h5.17l4.09-28.84h-4l-1.32,2.87h-.11a11.73,11.73,0,0,0-8.34-3.33c-8.05,0-11.84,6.6-13,14.93s.45,14.93,8.5,14.93a15,15,0,0,0,9.31-3.44h.12ZM253.36,44.6H228.93l-5.47,39.06h5.46L231.22,67H247.6l.7-4.89H231.91l1.79-12.64h19Z"/><path d="M232.73,142.06l-2.45,17.72,0,0H215.07l0,0,8-57.46,0,0h25.37c12.7,0,19.21,7.6,17.52,19.87S255.59,142,242.9,142H232.76Zm2-13.59,0,0h8.43c3.39,0,6.52-1.27,7.2-6.35s-2-6.34-5.42-6.34h-8.44l0,0Zm61.23,31.32-7.86-18.58,0,0h-4.36l0,0-2.54,18.56,0,0H265.89l0,0,8-57.46,0,0H299.3c12.71,0,19.31,7.19,17.62,19.45-1.1,7.52-4.91,13.94-12.51,16.91l0,0,9.28,21.08,0,0H295.94ZM285.6,127.63l0,0h8.43c3.38,0,6.43-.84,7.2-5.92s-2.13-5.92-5.51-5.92h-8.44l0,0Zm79.58-11.81H339.4l0,0-1.09,7.55,0,0h21.95l0,0-1.94,13.48,0,0h-22l0,0-1.26,9.25,0,0h26.18l0,0-1.86,13.48,0,0H318l0,0,8-57.46,0,0h41l0,0-1.85,13.48Zm34.17-14.38a65.44,65.44,0,0,1,21.14,3.37l0,0-5.15,12.64,0,0C406.28,115.4,403,115,398.76,115c-8.05,0-12.53,5.08-14.06,15.65-1.6,11.42,1.53,16.5,9.57,16.5,4.23,0,7.61-.42,17.25-2.53l0,0,1.6,12.64,0,0a75.91,75.91,0,0,1-20.38,3.38l-5.09-.18c-17.78-1.35-21.24-14.29-19-29.86C370.9,114.13,378.61,101.44,399.35,101.44Zm18.74,29.18c2.28-16.49,10-29.18,30.73-29.18s24.89,12.69,22.61,29.18-10.17,30-30.91,30S415.8,147.12,418.09,130.62Zm16.08,0c-1.52,10.57-.76,17.35,8.13,17.35s11.52-6.78,13-17.35.6-16.49-8.29-16.49S435.7,120.05,434.17,130.62Zm81.16,13c-1.62,11.93-9.15,17-19.31,17a50,50,0,0,1-10-.85l0,0,3-12.64h0a26.52,26.52,0,0,0,4.55.41c2.54,0,6-.42,6.6-4.73l5.67-40.5,0,0h15.18l0,0Zm7.73-6.67L528,102.31l0,0h15.18l0,0L538,139.5c-.85,5.93,1.35,8.47,7.28,8.47s8.79-2.54,9.65-8.47l5.25-37.19,0,0h15.18l0,0-5.25,37.18C568,154.73,557,160.66,543.45,160.66s-22.86-5.93-20.75-21.16Zm50.57,20.27,4.3-12.64,0,0a86.78,86.78,0,0,0,19.95,2.54c3.4,0,6.86-.85,7.28-3.81.51-3.81-4.48-4.23-11.43-6.35-10.06-3.12-15.24-8.88-13.88-18.61,1.78-12.18,12.53-16.91,24.39-16.91A64.82,64.82,0,0,1,625,104.81v0l-5.15,12.64,0,0c-9-2.11-13.19-2.54-17.42-2.54-3.38,0-6.09,1.26-6.42,3.81-.43,3,3.21,3.72,10.65,5.49,10.17,2.46,16.26,7.62,14.83,17.77-1.86,13.12-12.78,18.62-25.48,18.62a74,74,0,0,1-22.32-3.38Zm84.42-41.4-6.17,43.93,0,0H636.66l0,0,6.18-43.92,0,0H628.46l0,0,1.86-13.48,0,0h44l0,0-1.86,13.48,0,0H658.08Zm15.51,14.77c2.3-16.49,10-29.18,30.74-29.18s24.9,12.69,22.61,29.18-10.16,30-30.9,30S671.29,147.12,673.56,130.62Zm16.1,0c-1.52,10.57-.76,17.35,8.13,17.35s11.51-6.78,13-17.35.59-16.49-8.3-16.49S691.18,120.05,689.66,130.62ZM405.71,169l.77-5.19,0,0H373.6l0,0-.76,5.19,0,0h32.84Z"/><path d="M723.05,178l-2,15.21h2.62L726,178Zm-2.52,18-.59,4.25h2.95l.59-4.25Zm-13.75,4.58c7.59,0,10.25-5.3,11.13-11.62s-.32-11.29-7.92-11.29-10.22,5.08-11.07,11.29S699.15,200.59,706.78,200.59Zm2.85-20.29c5.3,0,5.66,3.93,5,8.67s-2.16,9-7.5,9-5.63-4.26-4.95-9S704.29,180.3,709.63,180.3Zm-21.19-5.73c1.24,0,2.78,1.68,4,1.68s2.16-.76,3.24-2.43l-.66-.91c-1.08,1.3-1.76,1.5-2.35,1.5-1.12,0-2.46-1.7-4.06-1.7-1.15,0-2.3.59-3.87,2.68l.86.76C687.23,174.7,687.69,174.57,688.44,174.57Zm.85,7.17L691.35,192h-7.2l5.08-10.28Zm3.41,18.52h3.47l-4.36-22.41H688l-10.81,22.41h3.28l2.69-5.63h8.48Zm-33-11.29c-.88,6.19.16,11.26,7,11.58l-.3,2.16c1.54.1,1.9.92,1.8,1.57a1.84,1.84,0,0,1-2.06,1.54,5.93,5.93,0,0,1-1.67-.22l-.37,1a7.87,7.87,0,0,0,2.4.39c2,0,3.34-1,3.53-2.56.26-1.73-1.17-2.25-2.39-2.35l.2-1.47a28.22,28.22,0,0,0,7.53-1.15l-.32-2.62a27.55,27.55,0,0,1-6.88,1c-5.17,0-6-3.77-5.24-8.84.65-4.74,2.49-8.51,7.66-8.51a24.7,24.7,0,0,1,6.62,1l1.05-2.62a24.69,24.69,0,0,0-7.54-1.15C663.19,177.68,660.61,182.76,659.75,189Zm-9.62-7.23L652.19,192H645l5.08-10.28Zm3.4,18.52H657l-4.35-22.41h-3.84L638,200.26h3.27l2.69-5.63h8.48Zm-28.85-19.47h5.73c2.46,0,3.8,1.47,3.44,4a4.43,4.43,0,0,1-4.75,4h-5.57Zm10.94,19.47-4.39-9.16a7.12,7.12,0,0,0,5.83-6.29c.52-3.92-1.51-6.8-5.93-6.8H622l-3.11,22.25H622l1.18-8.67h4.75l4.09,8.67Zm-29.87.33c7.6,0,10.25-5.3,11.13-11.62s-.32-11.29-7.92-11.29-10.22,5.08-11.07,11.29S598.12,200.59,605.75,200.59Zm2.85-20.29c5.3,0,5.66,3.93,5,8.67s-2.16,9-7.5,9-5.63-4.26-4.94-9S603.26,180.3,608.6,180.3ZM579.13,189c-.89,6.38.23,11.62,7.85,11.62a27.74,27.74,0,0,0,7.86-1.15l-.32-2.62a27.55,27.55,0,0,1-6.88,1c-5.18,0-6-3.77-5.24-8.84.65-4.74,2.49-8.51,7.66-8.51a24.7,24.7,0,0,1,6.62,1l1.05-2.62a24.6,24.6,0,0,0-7.54-1.15C582.56,177.68,580,182.76,579.13,189Zm-19.36,9c-4.85,0-4.91-3.11-4.55-5.56l2-14.4h-3.11l-2,14.4c-.82,5.73,1.86,8.18,7.2,8.18s8.68-2.45,9.5-8.18l2-14.4h-3.11l-2,14.4C565.34,194.86,564.35,198,559.77,198ZM550,178H535.8l-3.11,22.25H547.1l.35-2.78H536.16l1.05-7.36h9.66l.39-2.79H537.6l.91-6.54h11.14Zm-28.58,22.58c4.58,0,8.31-2.13,8.94-6.55.55-3.82-2.33-5.56-5.8-6.38-2.42-.58-5.54-1.47-5.17-4,.22-1.73,1.57-3.21,4.84-3.21a25.31,25.31,0,0,1,6.72,1l1-2.62a23.86,23.86,0,0,0-7.36-1.15c-4.26,0-7.93,1.67-8.52,5.89-.52,3.76,2.46,5.76,5.93,6.71,2.29.65,5.37,1.31,5,4-.26,1.81-2,3.51-5.24,3.51a29,29,0,0,1-7.34-1l-.91,2.62A27.1,27.1,0,0,0,521.46,200.59Zm-27,0c7.6,0,10.25-5.3,11.13-11.62s-.32-11.29-7.92-11.29-10.22,5.08-11.07,11.29S486.81,200.59,494.44,200.59Zm2.85-20.29c5.3,0,5.66,3.93,5,8.67s-2.16,9-7.5,9-5.63-4.26-4.94-9S492,180.3,497.29,180.3Zm-29.77,17.18,2.36-16.69h4.84c5,0,5.64,3.44,5,8.18s-2.36,8.51-7.34,8.51Zm4.45,2.78c7.3,0,10.12-5,11-11.29s-.58-11-7.89-11h-7.92l-3.11,22.25ZM457.17,178H442.92l-3.11,22.25h14.41l.36-2.78H443.29l1-7.36H454l.4-2.79h-9.67l.92-6.54h11.14Zm-34.78,19.47,2.35-16.69h4.85c5,0,5.64,3.44,5,8.18s-2.36,8.51-7.33,8.51Zm4.45,2.78c7.3,0,10.12-5,11-11.29s-.59-11-7.89-11H422l-3.11,22.25ZM417.93,178H403.69l-3.11,22.25H415l.36-2.78h-11.3l1-7.36h9.67l.39-2.79h-9.66l.91-6.54h11.14Zm-31.67,2.78H392c2.46,0,3.81,1.47,3.44,4a4.42,4.42,0,0,1-4.74,4h-5.57Zm10.94,19.47-4.39-9.16a7.09,7.09,0,0,0,5.83-6.29c.53-3.92-1.5-6.8-5.92-6.8h-9.17l-3.12,22.25h3.12l1.18-8.67h4.74l4.1,8.67Zm-32.81-18.52L366.45,192h-7.2l5.08-10.28Zm3.41,18.52h3.47l-4.36-22.41h-3.83l-10.81,22.41h3.28l2.68-5.63h8.48Z"/></g></g></svg>